:SAMPLES-PER-SECOND 30
:FULLY-SPECIFIED
:DEGREES
459
root  -40.5452 38.8939 -1.4445 98.7031 -87.36 -105.19
RightUpLeg  -11.9867 -5.0575 4.2177
RightLeg  26.3852 0.611902 0.0858153
RightFoot  -7.0824 0.118256 -4.47853
RightToes  -2.32831e-009 0 -3.6325e-017
Spine  5.13316 0.463752 14.3856
Spine1  8.78804 2.46774 -0.704266
HEad  -16.9619 -1.91275 -1.42759
LeftShoulder1  -0.542942 4.87523 -33.4375
LeftArm  -3.39893 9.0985 -42.4788
LeftForeArm  45.253 -4.83962 -9.38203
LeftHand  -0.461975 11.9833 -6.65721
RightShoulder  -1.05753 -6.42165 29.7068
RightArm  18.7006 5.23487 45.9313
RightForeArm  8.86951 18.3929 4.92931
RightHand  0.0350561 7.26891 -0.0425369
LeftUpLeg  -10.3159 3.33307 5.85695
LeftLeg  64.5966 -1.14829 -2.002
LeftFoot  5.23376 0.780841 -5.56645
LeftToes  8.91272e-011 -1.70619e-011 7.36378e-012
460
root  -41.6619 39.1462 -1.51017 114.515 -87.6038 -121.232
RightUpLeg  -8.99321 -5.68113 3.53988
RightLeg  24.8598 1.66607 0.556567
RightFoot  -8.24512 0.0685946 -4.5805
RightToes  -2.32831e-009 0 -3.6325e-017
Spine  4.81066 0.829796 14.9957
Spine1  8.92417 3.13108 -2.15521
HEad  -16.4529 -2.11622 -2.34725
LeftShoulder1  -0.594651 5.00622 -33.4195
LeftArm  -2.05815 12.1043 -40.4556
LeftForeArm  43.4416 -6.63135 -9.52128
LeftHand  -0.41892 11.6921 -6.21934
RightShoulder  -1.04956 -6.41628 29.4985
RightArm  21.0851 6.41086 46.6264
RightForeArm  8.29028 21.5132 4.53116
RightHand  0.043561 7.3311 0.032646
LeftUpLeg  -13.0213 3.12772 5.30443
LeftLeg  62.1729 -1.48474 -2.45522
LeftFoot  3.23093 0.569527 -4.62717
LeftToes  8.91272e-011 -1.70619e-011 7.36378e-012
461
root  -42.7392 39.3535 -1.59067 139.718 -87.6549 -146.379
RightUpLeg  -6.46223 -6.22043 2.6377
RightLeg  23.41 2.95781 0.992557
RightFoot  -9.45822 0.0099644 -4.5049
RightToes  -2.32831e-009 0 -3.6325e-017
Spine  4.19578 1.40519 14.6489
Spine1  9.13593 3.67672 -2.73595
HEad  -16.0996 -2.12323 -3.02594
LeftShoulder1  -0.633235 5.09757 -33.5723
LeftArm  1.24162 14.7188 -38.5432
LeftForeArm  40.0331 -9.01993 -9.71966
LeftHand  -0.552285 13.2074 -6.81347
RightShoulder  -1.03709 -6.39173 29.3693
RightArm  21.7463 7.64689 46.8803
RightForeArm  8.64626 24.5146 4.75816
RightHand  -0.00264004 7.35875 -0.392575
LeftUpLeg  -15.292 3.16808 4.55735
LeftLeg  57.2764 -2.10079 -3.01194
LeftFoot  0.845396 0.489748 -4.62015
LeftToes  8.91272e-011 -1.70619e-011 7.36378e-012
462
root  -43.8184 39.5293 -1.65157 159.09 -87.5011 -166.02
RightUpLeg  -3.49771 -7.2294 1.52454
RightLeg  21.8521 4.45046 1.51766
RightFoot  -10.5155 -0.0365366 -4.80841
RightToes  -2.32831e-009 0 -3.6325e-017
Spine  4.09184 1.69199 14.3028
Spine1  8.92594 3.97035 -3.47385
HEad  -15.7438 -1.57711 -4.21646
LeftShoulder1  -0.597575 5.00545 -33.6314
LeftArm  3.39407 17.0415 -37.3349
LeftForeArm  36.636 -10.4639 -9.51249
LeftHand  -0.390777 12.1371 -5.36877
RightShoulder  -1.00602 -6.32884 29.065
RightArm  21.6261 8.30994 46.8766
RightForeArm  9.42001 27.3815 5.39864
RightHand  0.0117262 8.17855 -0.277273
LeftUpLeg  -16.337 2.88104 3.85023
LeftLeg  49.918 -2.46864 -2.73766
LeftFoot  -0.806265 0.374837 -4.02336
LeftToes  8.91272e-011 -1.70619e-011 7.36378e-012
463
root  -44.8538 39.6438 -1.70746 167.777 -86.9873 -174.45
RightUpLeg  -1.2636 -7.75506 0.879757
RightLeg  20.3808 5.59753 1.84316
RightFoot  -11.3435 -0.0765428 -5.21969
RightToes  -2.32831e-009 0 -3.6325e-017
Spine  3.40525 1.99445 14.0974
Spine1  9.00599 4.13783 -4.04513
HEad  -15.7828 -1.46456 -4.58218
LeftShoulder1  -0.671121 5.17855 -33.9142
LeftArm  4.11412 18.7928 -36.4127
LeftForeArm  35.0158 -11.7759 -8.90799
LeftHand  -0.335281 10.9116 -5.5243
RightShoulder  -1.03186 -6.39265 29.1676
RightArm  21.623 9.10565 46.9432
RightForeArm  9.94542 29.5457 5.88016
RightHand  -0.0290491 8.25838 -0.629054
LeftUpLeg  -17.0622 3.04281 3.61676
LeftLeg  40.5471 -2.14323 -1.61611
LeftFoot  -0.970611 0.389473 -4.21771
LeftToes  8.91272e-011 -1.70619e-011 7.36378e-012
464
root  -45.8377 39.7472 -1.76206 173.345 -86.36 -179.823
RightUpLeg  0.989552 -7.97001 0.299346
RightLeg  18.8126 6.62296 2.02868
RightFoot  -12.0762 -0.115166 -5.26684
RightToes  -2.32831e-009 0 -3.6325e-017
Spine  3.02341 2.24621 13.4544
Spine1  9.04333 4.2403 -4.49758
HEad  -16.3801 -0.905124 -4.69172
LeftShoulder1  -0.789465 5.47755 -33.821
LeftArm  3.43524 19.8325 -36.3214
LeftForeArm  34.5713 -12.2186 -8.48528
LeftHand  -0.382511 11.4577 -5.8835
RightShoulder  -1.10142 -6.55025 29.6247
RightArm  21.9907 9.95007 46.7576
RightForeArm  10.1426 30.9215 6.20636
RightHand  -0.0268729 8.55007 -0.607816
LeftUpLeg  -16.663 3.43606 3.57474
LeftLeg  29.0903 -1.79431 -0.728041
LeftFoot  -0.36756 0.474942 -4.92448
LeftToes  8.91272e-011 -1.70619e-011 7.36378e-012
465
root  -46.8284 39.8336 -1.82085 174.763 -85.9541 178.78
RightUpLeg  3.70125 -8.01629 -0.124518
RightLeg  16.6898 7.21413 1.95005
RightFoot  -12.6745 -0.144096 -5.02499
RightToes  -2.32831e-009 0 -3.6325e-017
Spine  2.67336 2.46235 12.1844
Spine1  9.09278 4.08759 -3.98654
HEad  -16.2553 -0.448875 -4.87423
LeftShoulder1  -0.83156 5.56665 -34.1333
LeftArm  2.7683 20.4682 -36.3531
LeftForeArm  34.3431 -12.08 -8.40433
LeftHand  -0.478609 12.4613 -6.36025
RightShoulder  -1.01325 -6.35039 29.0526
RightArm  22.3387 9.79577 46.9492
RightForeArm  9.67117 31.4614 6.36854
RightHand  -0.0756049 8.51351 -1.01156
LeftUpLeg  -15.4408 3.64688 3.70474
LeftLeg  16.775 -2.10476 -0.375455
LeftFoot  -0.487287 0.477474 -4.99644
LeftToes  8.91272e-011 -1.70619e-011 7.36378e-012
